<svg xmlns="http://www.w3.org/2000/svg" xmlns:xlink="http://www.w3.org/1999/xlink" version="1.1" width="256" height="256" viewBox="0 0 256 256" xml:space="preserve">

<defs>
</defs>
<g style="stroke: none; stroke-width: 0; stroke-dasharray: none; stroke-linecap: butt; stroke-linejoin: miter; stroke-miterlimit: 10; fill: none; fill-rule: nonzero; opacity: 1;" transform="translate(1.4065934065934016 1.4065934065934016) scale(2.81 2.81)" >
	<path d="M 42.798 62.091 c 9.951 0 7.929 26.898 14.304 26.898 c 5.131 0 10.617 -14.687 9.613 -31.696 c -0.183 -3.104 0.562 -6.195 2.034 -8.934 c 14.539 -27.057 -5.359 -35.388 -21.944 -28.414 c -2.555 1.074 -5.459 1.074 -8.014 0 c -16.585 -6.974 -36.483 1.357 -21.944 28.414 c 1.472 2.739 2.217 5.83 2.034 8.934 c -1.004 17.008 4.482 31.696 9.613 31.696 C 34.869 88.989 32.848 62.091 42.798 62.091 z" style="stroke: none; stroke-width: 1; stroke-dasharray: none; stroke-linecap: butt; stroke-linejoin: miter; stroke-miterlimit: 10; fill: rgb(240,253,255); fill-rule: nonzero; opacity: 1;" transform=" matrix(1 0 0 1 0 0) " stroke-linecap="round" />
	<path d="M 57.103 90 c -3.646 0 -4.876 -5.568 -6.301 -12.014 c -1.542 -6.977 -3.288 -14.884 -8.003 -14.884 c -4.715 0 -6.462 7.907 -8.003 14.884 C 33.371 84.432 32.14 90 28.494 90 c -1.284 0 -2.549 -0.651 -3.759 -1.935 c -3.962 -4.202 -7.714 -16.437 -6.864 -30.832 c 0.168 -2.848 -0.494 -5.75 -1.915 -8.395 c -8.479 -15.781 -4.609 -23.787 -1.547 -27.155 c 5.149 -5.663 15.104 -6.735 24.774 -2.67 c 2.298 0.966 4.933 0.965 7.23 0 c 3.639 -1.53 7.496 -2.367 11.155 -2.42 c 0.57 -0.004 1.018 0.438 1.026 0.996 s -0.438 1.018 -0.996 1.026 c -3.402 0.049 -6.999 0.832 -10.401 2.262 c -2.796 1.175 -6.003 1.175 -8.798 0 c -8.742 -3.677 -17.991 -2.785 -22.493 2.166 c -4.667 5.133 -4.016 13.954 1.832 24.837 c 1.598 2.975 2.343 6.25 2.152 9.471 c -0.816 13.83 2.646 25.432 6.317 29.326 c 0.559 0.593 1.409 1.3 2.287 1.3 c 2.021 0 3.246 -5.54 4.326 -10.428 c 1.705 -7.721 3.639 -16.47 9.978 -16.47 c 6.339 0 8.273 8.75 9.978 16.47 c 1.08 4.888 2.305 10.428 4.326 10.428 c 0.878 0 1.728 -0.706 2.286 -1.3 c 3.672 -3.895 7.134 -15.496 6.317 -29.326 c -0.19 -3.222 0.555 -6.498 2.153 -9.471 c 3.25 -6.048 4.905 -11.416 4.919 -15.953 c 0.002 -0.559 0.436 -1.006 1.014 -1.008 c 0.559 0.002 1.01 0.456 1.008 1.014 c -0.015 4.873 -1.751 10.561 -5.16 16.905 c -1.421 2.644 -2.084 5.546 -1.916 8.395 c 0.85 14.395 -2.901 26.629 -6.863 30.832 C 59.651 89.349 58.387 90 57.103 90 z" style="stroke: none; stroke-width: 1; stroke-dasharray: none; stroke-linecap: butt; stroke-linejoin: miter; stroke-miterlimit: 10; fill: rgb(27,196,224); fill-rule: nonzero; opacity: 1;" transform=" matrix(1 0 0 1 0 0) " stroke-linecap="round" />
	<path d="M 68.981 31.656 l -1.686 -5.706 c -0.08 -0.209 -0.175 -0.413 -0.283 -0.609 c -0.11 -0.2 -0.236 -0.395 -0.374 -0.578 c -0.138 -0.183 -0.289 -0.358 -0.451 -0.52 c -0.162 -0.162 -0.337 -0.314 -0.52 -0.451 c -0.182 -0.137 -0.377 -0.263 -0.578 -0.373 c -0.195 -0.108 -0.4 -0.203 -0.61 -0.283 l -5.706 -1.686 l 5.706 -1.686 c 0.208 -0.08 0.413 -0.175 0.609 -0.283 c 0.201 -0.11 0.395 -0.236 0.578 -0.374 c 0.183 -0.138 0.358 -0.289 0.52 -0.451 c 0.161 -0.162 0.313 -0.337 0.451 -0.52 c 0.137 -0.183 0.263 -0.377 0.374 -0.578 c 0.108 -0.196 0.203 -0.401 0.282 -0.609 l 1.686 -5.706 l 1.686 5.706 c 0.08 0.209 0.175 0.414 0.283 0.609 c 0.111 0.201 0.236 0.396 0.373 0.578 c 0.137 0.183 0.289 0.358 0.452 0.52 c 0.161 0.161 0.336 0.313 0.52 0.451 c 0.183 0.137 0.378 0.263 0.578 0.373 c 0.196 0.108 0.401 0.203 0.609 0.283 l 5.706 1.686 l -5.706 1.686 c -0.21 0.08 -0.415 0.175 -0.609 0.282 c -0.201 0.111 -0.396 0.236 -0.579 0.374 c -0.183 0.137 -0.358 0.289 -0.52 0.451 c -0.162 0.162 -0.314 0.337 -0.451 0.52 c -0.137 0.183 -0.263 0.377 -0.373 0.578 c -0.108 0.195 -0.203 0.4 -0.283 0.61 L 68.981 31.656 z" style="stroke: none; stroke-width: 1; stroke-dasharray: none; stroke-linecap: butt; stroke-linejoin: miter; stroke-miterlimit: 10; fill: rgb(27,196,224); fill-rule: nonzero; opacity: 1;" transform=" matrix(1 0 0 1 0 0) " stroke-linecap="round" />
	<path d="M 55.903 12.997 L 54.83 9.364 c -0.051 -0.133 -0.111 -0.263 -0.18 -0.388 c -0.07 -0.128 -0.15 -0.251 -0.238 -0.368 c -0.088 -0.117 -0.184 -0.228 -0.287 -0.331 c -0.103 -0.103 -0.215 -0.2 -0.331 -0.287 c -0.116 -0.087 -0.24 -0.167 -0.368 -0.238 c -0.124 -0.068 -0.255 -0.129 -0.388 -0.18 l -3.633 -1.073 l 3.633 -1.073 c 0.133 -0.051 0.263 -0.111 0.388 -0.18 c 0.128 -0.07 0.252 -0.15 0.368 -0.238 c 0.117 -0.088 0.228 -0.184 0.331 -0.287 c 0.103 -0.103 0.2 -0.214 0.287 -0.331 c 0.087 -0.116 0.167 -0.24 0.238 -0.368 c 0.069 -0.125 0.129 -0.255 0.18 -0.388 L 55.903 0 l 1.073 3.633 c 0.051 0.133 0.111 0.264 0.18 0.388 c 0.071 0.128 0.15 0.252 0.238 0.368 c 0.088 0.116 0.184 0.228 0.288 0.331 c 0.103 0.103 0.214 0.199 0.331 0.287 c 0.117 0.088 0.24 0.168 0.368 0.238 c 0.125 0.069 0.255 0.129 0.388 0.18 l 3.633 1.073 l -3.633 1.073 c -0.134 0.051 -0.264 0.111 -0.388 0.18 c -0.128 0.07 -0.252 0.15 -0.368 0.238 c -0.116 0.087 -0.228 0.184 -0.331 0.287 c -0.103 0.103 -0.2 0.214 -0.287 0.331 c -0.088 0.116 -0.168 0.24 -0.238 0.368 c -0.069 0.124 -0.129 0.255 -0.18 0.388 L 55.903 12.997 z" style="stroke: none; stroke-width: 1; stroke-dasharray: none; stroke-linecap: butt; stroke-linejoin: miter; stroke-miterlimit: 10; fill: rgb(27,196,224); fill-rule: nonzero; opacity: 1;" transform=" matrix(1 0 0 1 0 0) " stroke-linecap="round" />
	<path d="M 39.192 13.939 l -0.751 -2.543 c -0.036 -0.093 -0.078 -0.184 -0.126 -0.272 c -0.049 -0.089 -0.105 -0.176 -0.166 -0.258 c -0.061 -0.082 -0.129 -0.16 -0.201 -0.232 c -0.072 -0.072 -0.15 -0.14 -0.232 -0.201 c -0.081 -0.061 -0.168 -0.117 -0.258 -0.166 c -0.087 -0.048 -0.178 -0.09 -0.272 -0.126 L 34.643 9.39 l 2.543 -0.751 c 0.093 -0.035 0.184 -0.078 0.272 -0.126 c 0.089 -0.049 0.176 -0.105 0.258 -0.166 c 0.082 -0.061 0.16 -0.129 0.232 -0.201 c 0.072 -0.072 0.14 -0.15 0.201 -0.232 c 0.061 -0.081 0.117 -0.168 0.166 -0.258 c 0.048 -0.087 0.09 -0.179 0.126 -0.272 l 0.751 -2.543 l 0.751 2.543 c 0.036 0.093 0.078 0.185 0.126 0.272 c 0.049 0.09 0.105 0.176 0.166 0.258 c 0.061 0.081 0.129 0.16 0.201 0.232 c 0.072 0.072 0.15 0.14 0.232 0.201 c 0.082 0.061 0.168 0.117 0.258 0.166 c 0.087 0.048 0.179 0.09 0.272 0.126 L 43.74 9.39 l -2.543 0.751 c -0.094 0.036 -0.185 0.078 -0.272 0.126 c -0.09 0.049 -0.176 0.105 -0.258 0.167 c -0.081 0.061 -0.159 0.129 -0.232 0.201 c -0.072 0.072 -0.14 0.15 -0.201 0.232 c -0.061 0.081 -0.117 0.168 -0.166 0.258 c -0.048 0.087 -0.09 0.178 -0.126 0.272 L 39.192 13.939 z" style="stroke: none; stroke-width: 1; stroke-dasharray: none; stroke-linecap: butt; stroke-linejoin: miter; stroke-miterlimit: 10; fill: rgb(27,196,224); fill-rule: nonzero; opacity: 1;" transform=" matrix(1 0 0 1 0 0) " stroke-linecap="round" />
</g>
</svg>